<svg xmlns="http://www.w3.org/2000/svg" viewBox="0 0 28.625 28.625" width="28.625" height="28.625" aria-label="transparent white sparkle icon">
  <path d="M 14.375 26.562 L 13.625 26.438 L 12.938 26.000 L 12.562 25.500 L 11.812 24.000 L 11.812 23.625 L 11.688 23.500 L 11.688 21.375 L 10.938 19.250 L 10.812 18.375 L 10.375 17.812 L 9.625 17.562 L 7.875 17.312 L 6.750 16.812 L 5.000 16.812 L 4.500 16.562 L 3.750 16.438 L 3.000 16.062 L 2.438 15.500 L 2.062 14.875 L 2.062 14.500 L 1.938 14.375 L 1.938 13.625 L 2.062 13.375 L 2.500 12.938 L 3.625 12.188 L 4.000 12.188 L 4.625 11.938 L 6.000 11.938 L 6.125 11.812 L 6.500 11.812 L 7.125 11.438 L 8.500 11.438 L 8.875 11.188 L 9.875 10.938 L 10.562 10.500 L 10.812 9.875 L 10.938 8.750 L 11.562 7.375 L 11.562 6.625 L 11.688 6.500 L 11.688 5.750 L 11.812 5.625 L 11.812 4.250 L 11.938 3.875 L 13.500 2.188 L 14.125 1.938 L 14.625 1.938 L 15.125 2.188 L 16.438 3.875 L 16.562 4.250 L 16.562 5.875 L 16.812 6.500 L 16.938 8.125 L 17.312 8.875 L 17.562 10.250 L 18.000 10.812 L 18.625 11.062 L 20.000 11.188 L 21.125 11.688 L 22.000 11.688 L 22.625 11.938 L 24.250 11.938 L 24.625 12.062 L 26.312 13.375 L 26.562 14.125 L 26.562 14.500 L 26.312 15.250 L 24.625 16.562 L 24.250 16.688 L 22.875 16.688 L 22.750 16.812 L 22.125 16.812 L 21.250 17.188 L 20.750 17.188 L 20.500 17.062 L 20.375 17.188 L 20.000 17.188 L 19.500 17.562 L 18.250 17.812 L 17.812 18.125 L 17.188 19.250 L 17.188 20.625 L 16.688 21.750 L 16.562 23.875 L 16.438 24.000 L 16.438 24.375 L 16.188 25.125 L 15.938 25.500 L 15.000 26.312 L 14.375 26.562 Z M 14.312 23.250 L 14.688 23.000 L 14.812 22.625 L 14.938 21.000 L 15.188 20.500 L 15.188 18.875 L 15.688 18.000 L 15.938 17.125 L 17.000 16.062 L 17.500 15.812 L 18.250 15.562 L 18.750 15.562 L 18.875 15.438 L 19.375 15.438 L 19.875 15.188 L 20.875 15.062 L 21.000 14.938 L 23.000 14.812 L 23.438 14.500 L 23.438 14.125 L 23.250 13.938 L 22.375 13.812 L 22.250 13.688 L 21.000 13.688 L 20.250 13.438 L 19.375 13.438 L 17.125 12.688 L 15.938 11.375 L 15.688 10.875 L 15.562 9.875 L 15.062 8.750 L 15.062 8.250 L 14.938 8.125 L 14.938 6.875 L 14.812 6.750 L 14.688 5.875 L 14.375 5.438 L 14.000 5.438 L 13.688 5.750 L 13.688 6.125 L 13.562 6.250 L 13.562 7.375 L 13.188 8.250 L 13.188 9.750 L 12.688 10.625 L 12.688 11.000 L 12.438 11.500 L 11.375 12.562 L 10.125 13.062 L 9.000 13.188 L 8.000 13.562 L 5.625 13.688 L 5.062 14.000 L 4.938 14.375 L 5.625 14.938 L 9.000 15.188 L 9.125 15.312 L 9.875 15.438 L 10.500 15.812 L 11.500 16.062 L 12.562 17.250 L 12.688 18.375 L 13.438 20.625 L 13.562 22.625 L 13.875 23.188 L 14.125 23.312 L 14.312 23.250 Z M 23.375 8.688 L 23.000 8.688 L 22.438 8.250 L 22.062 7.000 L 21.500 6.438 L 20.250 6.062 L 19.812 5.500 L 19.812 5.125 L 20.250 4.562 L 21.500 4.188 L 22.062 3.625 L 22.438 2.375 L 23.000 1.938 L 23.375 1.938 L 23.938 2.375 L 24.312 3.625 L 24.875 4.188 L 26.125 4.562 L 26.562 5.125 L 26.562 5.500 L 26.125 6.062 L 24.875 6.438 L 24.312 7.000 L 23.938 8.250 L 23.375 8.688 Z M 6.000 26.562 L 4.375 26.562 L 3.625 26.188 L 2.688 25.500 L 1.938 24.125 L 1.938 22.500 L 2.312 21.750 L 3.000 20.812 L 4.375 20.062 L 6.000 20.062 L 6.750 20.438 L 7.688 21.125 L 8.438 22.500 L 8.438 24.125 L 8.062 24.875 L 7.375 25.812 L 6.000 26.562 Z M 5.562 24.500 L 6.312 23.875 L 6.438 23.625 L 6.438 23.000 L 5.750 22.188 L 5.500 22.062 L 4.875 22.062 L 4.062 22.750 L 3.938 23.000 L 3.938 23.625 L 4.625 24.438 L 4.875 24.562 L 5.562 24.500 Z" fill="#FFFFFF" fill-rule="evenodd"/>
</svg>
