<svg xmlns="http://www.w3.org/2000/svg" width="96" height="96" viewBox="0 0 96 96" fill="none">
  <rect x="18" y="70" width="60" height="7" rx="3.5" fill="#E9DFD0"/>
  <g>
    <animateTransform attributeName="transform" type="translate" values="0 0;0 -2;0 0" dur="1.6s" repeatCount="indefinite"/>
    <path d="M31 55c0-13 8-23 18-23s18 10 18 23c0 12-8 19-18 19S31 67 31 55Z" fill="#F2C766" stroke="#2B2520" stroke-width="2.4"/>
    <path d="M39 57c0-7 5-12 10-12s10 5 10 12c0 8-4 12-10 12s-10-4-10-12Z" fill="#F6D57B" opacity=".65"/>
    <circle cx="42" cy="48" r="3.2" fill="#2B2520">
      <animate attributeName="ry" values="3.2;0.6;3.2" dur="2.8s" repeatCount="indefinite"/>
    </circle>
    <circle cx="56" cy="48" r="3.2" fill="#2B2520"/>
    <path d="M46 54h6l-3 4-3-4Z" fill="#C77A2A" stroke="#2B2520" stroke-width="1.2" stroke-linejoin="round"/>
    <path d="M28 57c-6 1-8 7-5 11 5 0 9-3 10-8" fill="#E7B84C" stroke="#2B2520" stroke-width="2"/>
    <path d="M70 57c6 1 8 7 5 11-5 0-9-3-10-8" fill="#E7B84C" stroke="#2B2520" stroke-width="2"/>
    <path d="M43 73c-1 4-4 5-7 4" stroke="#C77A2A" stroke-width="3" stroke-linecap="round"/>
    <path d="M55 73c1 4 4 5 7 4" stroke="#C77A2A" stroke-width="3" stroke-linecap="round"/>
    <rect x="35" y="23" width="28" height="12" rx="6" fill="#F7F0E5" stroke="#2B2520" stroke-width="2"/>
    <path d="M40 29h18" stroke="#B98124" stroke-width="2" stroke-linecap="round"/>
  </g>
</svg>
