<svg xmlns="http://www.w3.org/2000/svg" width="96" height="96" viewBox="0 0 96 96" fill="none">
  <rect x="17" y="72" width="62" height="7" rx="3.5" fill="#E9DFD0"/>
  <path d="M30 28h16M50 28h16M38 36l8 8M58 36l-8 8" stroke="#B98124" stroke-width="2" stroke-linecap="round">
    <animate attributeName="stroke-dasharray" values="2 6;10 1;2 6" dur="1.4s" repeatCount="indefinite"/>
  </path>
  <rect x="24" y="20" width="18" height="13" rx="5" fill="#FFF8EC" stroke="#2B2520" stroke-width="2"/>
  <rect x="54" y="20" width="18" height="13" rx="5" fill="#FFF8EC" stroke="#2B2520" stroke-width="2"/>
  <rect x="39" y="41" width="18" height="13" rx="5" fill="#FFF8EC" stroke="#2B2520" stroke-width="2"/>
  <g>
    <animateTransform attributeName="transform" type="translate" values="0 0;0 -2;0 0" dur="1.2s" repeatCount="indefinite"/>
    <path d="M31 58c0-13 8-22 18-22s18 9 18 22c0 12-8 18-18 18S31 70 31 58Z" fill="#F2C766" stroke="#2B2520" stroke-width="2.4"/>
    <circle cx="42" cy="51" r="3" fill="#2B2520"/>
    <circle cx="56" cy="51" r="3" fill="#2B2520"/>
    <path d="M46 57h6l-3 4-3-4Z" fill="#C77A2A" stroke="#2B2520" stroke-width="1.2" stroke-linejoin="round"/>
    <path d="M28 60c-5 2-7 7-4 10 5 0 8-3 9-7" fill="#E7B84C" stroke="#2B2520" stroke-width="2"/>
    <path d="M70 60c5 2 7 7 4 10-5 0-8-3-9-7" fill="#E7B84C" stroke="#2B2520" stroke-width="2"/>
  </g>
</svg>
