<svg xmlns="http://www.w3.org/2000/svg" width="96" height="96" viewBox="0 0 96 96" fill="none">
  <rect x="17" y="71" width="62" height="7" rx="3.5" fill="#E9DFD0"/>
  <g>
    <animateTransform attributeName="transform" type="translate" values="0 0;0 -3;0 0" dur="1.1s" repeatCount="indefinite"/>
    <path d="M30 56c0-13 8-23 18-23s18 10 18 23c0 12-8 19-18 19S30 68 30 56Z" fill="#F2C766" stroke="#2B2520" stroke-width="2.4"/>
    <circle cx="41" cy="49" r="3" fill="#2B2520"/>
    <circle cx="55" cy="49" r="3" fill="#2B2520"/>
    <path d="M45 55h6l-3 4-3-4Z" fill="#C77A2A" stroke="#2B2520" stroke-width="1.2" stroke-linejoin="round"/>
    <path d="M28 58c-6 1-8 7-5 11 5 0 9-3 10-8" fill="#E7B84C" stroke="#2B2520" stroke-width="2"/>
    <path d="M68 58c6 1 8 7 5 11-5 0-9-3-10-8" fill="#E7B84C" stroke="#2B2520" stroke-width="2"/>
    <path d="M42 74c-1 4-4 5-7 4" stroke="#C77A2A" stroke-width="3" stroke-linecap="round"/>
    <path d="M54 74c1 4 4 5 7 4" stroke="#C77A2A" stroke-width="3" stroke-linecap="round"/>
  </g>
  <g>
    <animateTransform attributeName="transform" type="rotate" values="-5 48 39;5 48 39;-5 48 39" dur="1.1s" repeatCount="indefinite"/>
    <path d="M27 24c8-5 15-5 21 0v22c-6-4-13-4-21 0V24Z" fill="#FFF9EF" stroke="#2B2520" stroke-width="2"/>
    <path d="M48 24c6-5 13-5 21 0v22c-8-4-15-4-21 0V24Z" fill="#FFF3DF" stroke="#2B2520" stroke-width="2"/>
    <path d="M32 31h11M32 37h10M53 31h11M53 37h9" stroke="#B98124" stroke-width="1.6" stroke-linecap="round"/>
  </g>
</svg>
