<svg xmlns="http://www.w3.org/2000/svg" width="96" height="96" viewBox="0 0 96 96" fill="none">
  <rect x="18" y="72" width="60" height="7" rx="3.5" fill="#E9DFD0"/>
  <g>
    <animateTransform attributeName="transform" type="translate" values="0 0;0 -2;0 0" dur="1.25s" repeatCount="indefinite"/>
    <path d="M31 57c0-13 8-23 18-23s18 10 18 23c0 12-8 19-18 19S31 69 31 57Z" fill="#F2C766" stroke="#2B2520" stroke-width="2.4"/>
    <circle cx="42" cy="50" r="3.1" fill="#2B2520"/>
    <circle cx="56" cy="50" r="3.1" fill="#2B2520"/>
    <path d="M46 56h6l-3 4-3-4Z" fill="#C77A2A" stroke="#2B2520" stroke-width="1.2" stroke-linejoin="round"/>
    <path d="M29 59c-6 1-8 7-5 11 5 0 9-3 10-8" fill="#E7B84C" stroke="#2B2520" stroke-width="2"/>
    <path d="M69 59c6 1 8 7 5 11-5 0-9-3-10-8" fill="#E7B84C" stroke="#2B2520" stroke-width="2"/>
  </g>
  <g>
    <circle cx="35" cy="25" r="4" fill="#FFF8EC" stroke="#2B2520" stroke-width="2">
      <animate attributeName="cy" values="25;21;25" dur="1.3s" repeatCount="indefinite"/>
    </circle>
    <circle cx="48" cy="20" r="5" fill="#FFF8EC" stroke="#2B2520" stroke-width="2">
      <animate attributeName="cy" values="20;16;20" dur="1.3s" begin=".15s" repeatCount="indefinite"/>
    </circle>
    <circle cx="62" cy="25" r="4" fill="#FFF8EC" stroke="#2B2520" stroke-width="2">
      <animate attributeName="cy" values="25;21;25" dur="1.3s" begin=".3s" repeatCount="indefinite"/>
    </circle>
    <path d="M38 26h20" stroke="#B98124" stroke-width="1.7" stroke-linecap="round" opacity=".55"/>
  </g>
</svg>
